<svg xmlns="http://www.w3.org/2000/svg" width="55" height="55" viewBox="0 0 55 55">
  <g id="Pet" transform="translate(-33 -524)">
    <path id="Icon_map-pet-store" data-name="Icon map-pet-store" d="M18.6,14.106a4.44,4.44,0,0,1,4.367,2.915c.627,2.1.542,4.4,3.3,5.6,2.446.724,3.372,1.634,3.372,4.073,0,1.947-1.915,4.016-4.385,4.274a11.255,11.255,0,0,1-6.653-.974,11.245,11.245,0,0,1-6.65.974c-2.471-.258-4.386-2.335-4.386-4.274,0-2.387.988-3.4,3.43-4.089,3.005-1.335,2.6-3.675,3.272-5.685A4.473,4.473,0,0,1,18.6,14.106Zm13.768-1.45c-.745-.563-3.784,1.634-4.741,2.721a3.179,3.179,0,0,0-.943,2.256,3.255,3.255,0,0,0,6.255,1.207C33.876,16.733,33.928,13.834,32.368,12.656Zm-27.537,0c-1.558,1.178-1.507,4.077-.569,6.183a3.254,3.254,0,0,0,6.253-1.207,3.178,3.178,0,0,0-.942-2.256C8.616,14.29,5.577,12.093,4.831,12.656ZM22.6,1.108c7.566,1.117,7.035,12.2.977,11.3a3.809,3.809,0,0,1-3.242-3.3C20.136,7.435,19.685.679,22.6,1.108Zm-8,0c2.917-.43,2.465,6.327,2.265,8.008a3.807,3.807,0,0,1-3.241,3.3C7.564,13.306,7.033,2.225,14.6,1.108Z" transform="translate(41.4 535.911)" fill="#3291ef"/>
    <g id="Ellipse_4" data-name="Ellipse 4" transform="translate(33 524)" fill="none" stroke="#3291ef" stroke-width="2">
      <circle cx="27.5" cy="27.5" r="27.5" stroke="none"/>
      <circle cx="27.5" cy="27.5" r="26.5" fill="none"/>
    </g>
  </g>
</svg>
