<svg xmlns="http://www.w3.org/2000/svg" width="55" height="55" viewBox="0 0 55 55">
  <g id="Parking" transform="translate(-32 -597)">
    <path id="Icon_awesome-car-alt" data-name="Icon awesome-car-alt" d="M29.345,14.423l-.752-1.88L27.26,9.21A7.456,7.456,0,0,0,20.3,4.5h-8.5A7.457,7.457,0,0,0,4.851,9.21L3.517,12.543l-.752,1.88A4.272,4.272,0,0,0,0,18.414v3.211a4.246,4.246,0,0,0,1.07,2.8v3.617a2.141,2.141,0,0,0,2.141,2.141H5.352a2.141,2.141,0,0,0,2.141-2.141V25.907H24.618v2.141a2.141,2.141,0,0,0,2.141,2.141H28.9a2.141,2.141,0,0,0,2.141-2.141V24.43a4.244,4.244,0,0,0,1.07-2.8V18.414A4.272,4.272,0,0,0,29.345,14.423ZM8.826,10.8a3.211,3.211,0,0,1,2.982-2.018h8.5A3.211,3.211,0,0,1,23.285,10.8l1.333,3.333H7.492L8.826,10.8ZM5.352,21.612a2.019,2.019,0,0,1-2.141-2.134,2.019,2.019,0,0,1,2.141-2.134,4.118,4.118,0,0,1,3.211,3.2C8.563,21.825,6.636,21.612,5.352,21.612Zm21.407,0c-1.284,0-3.211.213-3.211-1.067a4.118,4.118,0,0,1,3.211-3.2A2.019,2.019,0,0,1,28.9,19.478a2.019,2.019,0,0,1-2.141,2.134Z" transform="translate(43.94 607.16)" fill="#3291ef"/>
    <g id="Ellipse_5" data-name="Ellipse 5" transform="translate(32 597)" fill="none" stroke="#3291ef" stroke-width="2">
      <circle cx="27.5" cy="27.5" r="27.5" stroke="none"/>
      <circle cx="27.5" cy="27.5" r="26.5" fill="none"/>
    </g>
  </g>
</svg>
