<svg xmlns="http://www.w3.org/2000/svg" width="55" height="55" viewBox="0 0 55 55">
  <g id="Wifi" transform="translate(-32 -364)">
    <path id="Icon_awesome-wifi" data-name="Icon awesome-wifi" d="M34.841,8.993a25.515,25.515,0,0,0-34.562,0A.872.872,0,0,0,.26,10.254l1.879,1.864a.891.891,0,0,0,1.229.021,21.054,21.054,0,0,1,28.384,0,.892.892,0,0,0,1.229-.021l1.879-1.864A.873.873,0,0,0,34.841,8.993ZM17.56,19.81a3.512,3.512,0,1,0,3.512,3.512A3.512,3.512,0,0,0,17.56,19.81Zm11.122-4.587a16.847,16.847,0,0,0-22.243,0,.867.867,0,0,0-.031,1.27L8.3,18.359a.9.9,0,0,0,1.21.044,12.359,12.359,0,0,1,16.105,0,.9.9,0,0,0,1.21-.044l1.89-1.865A.867.867,0,0,0,28.682,15.223Z" transform="translate(42.654 376.958)" fill="#3291ef"/>
    <g id="Ellipse_2" data-name="Ellipse 2" transform="translate(32 364)" fill="none" stroke="#3291ef" stroke-width="2">
      <circle cx="27.5" cy="27.5" r="27.5" stroke="none"/>
      <circle cx="27.5" cy="27.5" r="26.5" fill="none"/>
    </g>
  </g>
</svg>
